<svg xmlns="http://www.w3.org/2000/svg" width="2474" height="289" fill="none"><g fill="#EDB29F" clip-path="url(#a)"><path d="M1104.98 2.003c-65.03 0-117.761 57.81-117.761 129.112v157.854h235.491v-41.293h-117.54c-34.23 0-66.47-24.653-77.87-66.191h195.41v-50.329c0-71.343-52.73-129.153-117.76-129.153h.03Zm-81.83 143.504c0-49.552 36.61-89.741 81.83-89.741s81.83 40.148 81.83 89.741h-163.66ZM580.064 2.003c-65.035 0-117.764 57.81-117.764 129.112v157.854h35.933v-17.825c0-49.552 36.613-89.741 81.831-89.741s81.831 40.148 81.831 89.741v17.825h35.933V131.115c0-71.302-52.692-129.112-117.764-129.112Zm-81.756 143.504c0-49.552 36.613-89.741 81.831-89.741 45.219 0 81.832 40.148 81.832 89.741H498.308ZM317.661 2.003c-42.161 0-79.151 24.367-99.948 60.918-20.798-36.55-57.788-60.918-99.949-60.918C52.692 2.003 0 59.813 0 131.156V289.01h35.933v-17.825c0-49.552 36.613-89.741 81.831-89.741 45.219 0 81.831 40.148 81.831 89.741v17.825h36.273v-17.825c0-49.552 36.613-89.741 81.831-89.741 45.219 0 81.831 40.148 81.831 89.741v17.825h35.933V131.156C435.388 59.813 382.696 2.003 317.661 2.003ZM35.933 145.507c0-49.552 36.613-89.741 81.831-89.741 45.219 0 81.831 40.148 81.831 89.741H35.933Zm199.897 0c0-49.552 36.613-89.741 81.831-89.741 45.219 0 81.831 40.148 81.831 89.741H235.83ZM829.445 2.003H724.778v53.763c45.181 0 81.831 43.05 81.831 96.159 0 53.109-36.612 96.16-81.831 96.16v40.884h104.667c72.281 0 130.824-64.229 130.824-143.503 0-79.275-58.58-143.463-130.824-143.463Zm13.097 246.082V55.766c45.181 0 81.831 43.05 81.831 96.159 0 53.109-36.612 96.16-81.831 96.16ZM2473.24 129.153C2473.24 57.81 2420.55 0 2355.51 0c-65.03 0-117.76 57.81-117.76 129.112v157.854h235.49v-41.293H2355.7c-34.24 0-66.47-24.653-77.87-66.192h195.41v-50.328Zm-199.56 14.35c0-49.551 36.61-89.74 81.83-89.74s81.83 40.148 81.83 89.74h-163.66ZM1830.1 0c-65.03 0-117.76 57.81-117.76 129.112v157.854h35.93V269.14c0-49.551 36.61-89.74 81.83-89.74s81.83 40.148 81.83 89.74v17.826h35.94V129.112C1947.87 57.81 1895.17 0 1830.1 0Zm-81.79 143.503c0-49.551 36.61-89.74 81.83-89.74s81.83 40.148 81.83 89.74h-163.66Zm226.5 143.463h111.69c64.7 0 123.81-48.162 123.81-107.566h-39.67v.081c-10.65 38.636-41.49 66.642-77.91 66.642-36.42 0-67.3-28.006-77.87-66.642-2.53-9.28-3.92-19.215-3.92-29.518 0-2.167.07-4.293.19-6.419 2.83-49.96 38-89.454 81.15-89.74h.86c36.43.245 68.17 28.455 78.59 67.254H2210c-3.81-67.54-54.95-121.099-117.5-121.099h-2.94c-63.41.082-114.78 55.807-114.78 124.492v162.474l.03.041Zm-724.92-180.545v73.02h117.76c-11.4 41.538-43.6 66.232-77.91 66.232h-39.85v41.293h80.88c53.98 0 97.72-47.998 97.72-107.198v-36.306h-142.67c0-49.551 36.61-89.74 81.83-89.74h81.83V0h-102.51c-53.6 0-97.05 47.63-97.05 106.421h-.03ZM1576.34 0c-65.15 0-117.91 57.933-117.91 129.317v157.567h35.93v-41.211c25.29 0 46.92 17.049 55.94 41.211h26.04c65.15 0 117.92-53.517 117.92-143.462v-14.146c.04-71.384-52.77-129.317-117.92-129.317V0Zm0 233.408c-45.25 0-81.98-40.271-81.98-89.905 0-49.633 36.73-89.904 81.98-89.904 45.26 0 81.98 40.271 81.98 89.904 0 49.634-36.72 89.905-81.98 89.905Z"/></g><defs><clipPath id="a"><path fill="#fff" d="M0 0h2473.24v289.01H0z"/></clipPath></defs></svg>